# xmcd
# Track frame offsets:
# 150
# 13684
# 22996
# 39720
# 51717
# 64626
# 75441
# 85978
# 98288
# 109350
# 123833
# 136080
#
# Disc length: 1966 seconds
# Revision: 0
# Processed by: cddbd v1.4PL0 Copyright (c) Steve Scherf et al.
# Submitted via: VisiTrax 2.9.5.181 - For more info visit www.synapsa.com
#
DISCID=9007ac0c
DTITLE=Dolly Parton - Dolly Parton (Canden)
DYEAR=1900
DGENRE=
TTITLE0=Down On Music Row
TTITLE1=The Letter
TTITLE2=I Remember
TTITLE3=Dr. Robert F. Thomas
TTITLE4=Daddy's Working Boots
TTITLE5=All I Can Do
TTITLE6=Hey Lucky Lady
TTITLE7=In The Good Old Days (When Times Were bad)
TTITLE8=The Wrong Direction Home
TTITLE9=The Better Part Of Life
TTITLE10=Back Home
TTITLE11=Old Black Kettle
EXTD=
EXTT0=
EXTT1=
EXTT2=
EXTT3=
EXTT4=
EXTT5=
EXTT6=
EXTT7=
EXTT8=
EXTT9=
EXTT10=
EXTT11=
PLAYORDER=
